<?xml version="1.0" encoding="UTF-8"?>
<svg id="Layer_2" data-name="Layer 2" xmlns="http://www.w3.org/2000/svg" viewBox="0 0 76.61 76.73">
  <defs>
    <style>
      .cls-1 {
        fill: #fff;
      }
    </style>
  </defs>
  <g id="Layer_1-2" data-name="Layer 1">
    <path class="cls-1" d="M19.62,36.5H.51c-.28,0-.5.22-.5.5v3.51c0,.28.22.5.5.5h19.11c.28,0,.5-.22.5-.5v-3.51c0-.28-.22-.5-.5-.5ZM36.44,20.14h3.51c.28,0,.5-.22.5-.5V.53c0-.28-.22-.5-.5-.5h-3.51c-.28,0-.5.22-.5.5v19.11c0,.28.22.5.5.5ZM.82,30.32h.04s14.72-.63,14.72-.63h0c.16-.01.29-.06.42-.15.12-.08.23-.2.3-.36l.08-.18c.04-.1.06-.21.06-.3,0-.21-.07-.4-.21-.56h0s-9.97-10.86-9.97-10.86l-.34.31.33-.31c-.16-.17-.38-.28-.61-.28-.33,0-.63.22-.75.52l-.84,2.02c-.07.16-.1.33-.1.49,0,.37.17.66.36.84h0s5.01,5.31,5.01,5.31l-7.29.24h0c-.24.01-.47.05-.68.18-.22.13-.35.35-.44.55l-.84,2.04C.02,29.29,0,29.41,0,29.52c0,.21.09.43.24.57.15.15.36.23.58.22ZM56.99,36.5c-.28,0-.5.22-.5.5v3.51c0,.28.22.5.5.5h19.11c.28,0,.5-.22.5-.5v-3.51c0-.28-.22-.5-.5-.5h-19.11ZM46.6,15.58h0c.01.16.06.3.15.42.08.12.2.23.36.3l.17-.42-.17.42.18.08c.1.04.21.06.3.06.21,0,.4-.07.56-.21h0s10.86-9.97,10.86-9.97c.17-.16.28-.38.28-.61,0-.33-.22-.63-.52-.75l-2.02-.84c-.16-.07-.33-.1-.49-.1-.37,0-.65.17-.84.36h0s-5.31,5.01-5.31,5.01l-.24-7.29h0c-.01-.25-.04-.47-.18-.69-.13-.22-.35-.35-.56-.44l-2.04-.84C47,.02,46.89,0,46.77,0c-.21,0-.43.09-.57.24-.15.15-.23.36-.22.58v.03s.63,14.73.63,14.73ZM60.38,28.13c-.14.17-.2.35-.21.56,0,.1.02.2.06.31h0s.08.18.08.18c.07.16.18.28.3.36.12.08.26.13.42.15h0s14.72.63,14.72.63h.04c.21,0,.42-.08.58-.22.15-.15.24-.36.24-.57,0-.12-.02-.23-.07-.34l-.84-2.04c-.08-.21-.22-.42-.44-.55-.22-.13-.45-.16-.68-.18h0s-7.29-.24-7.29-.24l5.01-5.31h0c.19-.19.36-.48.36-.84,0-.16-.03-.32-.1-.49l-.84-2.02c-.12-.3-.42-.53-.75-.52-.23,0-.45.11-.61.28h0s-9.97,10.86-9.97,10.86h0ZM13.4,9.95c-.2-.2-.51-.2-.71,0l-2.48,2.48c-.2.2-.2.51,0,.71l13.51,13.51c.2.2.51.2.71,0l2.48-2.48c.2-.2.2-.51,0-.71l-13.51-13.51ZM49.7,24.17l2.48,2.48c.2.2.51.2.71,0l13.51-13.51c.2-.2.2-.51,0-.71l-2.48-2.48c-.2-.2-.51-.2-.71,0l-13.51,13.51c-.2.2-.2.51,0,.71ZM48.16,60.38h0c-.17-.14-.35-.21-.57-.21-.1,0-.2.02-.3.06l-.18.08c-.16.07-.28.18-.36.3-.08.12-.13.26-.15.42l-.63,14.74v.03c0,.21.08.42.22.58.15.15.36.24.57.24.12,0,.23-.02.34-.07l2.04-.84c.21-.08.42-.22.55-.44.13-.22.16-.45.18-.68h0s.24-7.3.24-7.3l5.31,5.01h0c.19.18.48.36.84.36.16,0,.32-.03.48-.1l2.02-.84c.3-.12.53-.42.52-.75,0-.23-.11-.45-.28-.61l-10.86-9.97ZM52.89,50.4c-.2-.2-.51-.2-.71,0l-2.48,2.48c-.2.2-.2.51,0,.71l13.51,13.51c.2.2.51.2.71,0l2.48-2.48c.2-.2.2-.51,0-.71l-13.51-13.51ZM30.45.85v-.03c0-.21-.08-.42-.22-.58C30.08.09,29.87,0,29.66,0c-.12,0-.23.02-.34.07l-2.04.84c-.21.08-.42.22-.55.44-.13.22-.16.45-.18.68h0s-.24,7.3-.24,7.3l-5.31-5.01h0c-.19-.18-.48-.36-.84-.36-.16,0-.32.03-.49.1l-2.02.84c-.3.12-.53.42-.52.75,0,.23.11.45.28.61l10.85,9.97h0c.17.15.35.21.57.22.1,0,.2-.02.3-.06l.18-.08c.16-.07.28-.18.36-.3.08-.12.13-.26.15-.42l.63-14.73h0ZM76.37,46.29c-.15-.15-.36-.23-.58-.22h-.04s-14.73.63-14.73.63h0c-.16.01-.29.06-.42.15-.12.08-.23.2-.3.36l-.08.18c-.04.1-.06.21-.06.3,0,.21.07.4.21.56h0s9.97,10.86,9.97,10.86c.16.17.38.28.61.28.33,0,.63-.22.75-.52l.84-2.02c.07-.16.1-.33.1-.49,0-.37-.17-.66-.36-.84h0s-5.01-5.31-5.01-5.31l7.29-.24h0c.24-.01.47-.04.68-.18.22-.13.35-.35.44-.55l.84-2.04c.04-.11.07-.22.07-.34,0-.21-.09-.43-.24-.57ZM45.97,75.78v-.03s0,0,0,0v.03ZM39.95,56.62h-3.51c-.28,0-.5.22-.5.5v19.11c0,.28.22.5.5.5h3.51c.28,0,.5-.22.5-.5v-19.11c0-.28-.22-.5-.5-.5ZM38.31,30.74c-4.51,0-8.13,3.34-8.13,8.02s3.53,8.02,8.13,8.02,8.12-3.34,8.12-8.07-3.59-7.96-8.12-7.96ZM38.31,42.56c-2.04,0-3.61-1.74-3.61-3.8s1.6-3.8,3.59-3.8c2.12,0,3.64,1.79,3.64,3.8s-1.5,3.8-3.61,3.8Z"/>
  </g>
</svg>